<svg xmlns="http://www.w3.org/2000/svg" width="1431" height="83" fill="none"><path fill="#fff" fill-opacity=".05" d="M55.739 22.37v1.598h1.597V22.37H55.74Zm-34.28 0v-1.597H19.86v1.597h1.598Zm0 17.464H19.86v1.597h1.598v-1.597Zm33.633 0h1.598v-1.598h-1.598v1.598Zm0 19.92v1.598h1.598v-1.597h-1.598Zm-33.633 0v-1.597H19.86v1.598h1.598Zm0 33.246v1.597h1.597V93H21.46ZM.762 93H-.836v1.597H.762V93Zm0-90.551V.85H-.836V2.45H.762Zm54.977 0h1.597V.85H55.74V2.45Zm0 18.324h-34.28v3.195h34.28v-3.195ZM19.862 22.37v17.464h3.194V22.37h-3.195Zm1.597 19.061h33.633v-3.195H21.46v3.195Zm32.036-1.597v19.92h3.195v-19.92h-3.195Zm1.597 18.323H21.46v3.195h33.633v-3.195Zm-35.23 1.598V93h3.194V59.755h-3.195Zm1.597 31.648H.762v3.194h20.697v-3.194ZM2.359 93V2.449H-.836V93H2.36ZM.762 4.046h54.977V.851H.762v3.195Zm53.38-1.597V22.37h3.194V2.45h-3.194ZM115.57 93l-1.385.795.46.802h.925V93ZM98.496 63.248l1.386-.796-.46-.802h-.926v1.598Zm-9.831 0V61.65h-1.598v1.598h1.598Zm0 29.752v1.597h1.597V93h-1.597Zm-20.698 0H66.37v1.597h1.597V93Zm0-90.551V.85H66.37V2.45h1.597Zm58.212 9.055 1.129-1.13-1.129 1.13Zm4.398 37.385-1.337-.875-.003.006 1.34.869Zm-12.03 10.866-.734-1.42-1.489.771.841 1.45 1.382-.801ZM137.821 93v1.597h2.773l-1.391-2.398-1.382.801ZM88.665 21.853v-1.598h-1.598v1.598h1.598Zm0 23.284h-1.598v1.598h1.598v-1.598Zm22.767-3.363-1.174-1.084-.011.013-.012.012 1.197 1.059Zm0-16.558-1.197 1.058.012.013.011.012 1.174-1.083Zm5.525 66.989L99.882 62.452l-2.771 1.59 17.075 29.753 2.771-1.59ZM98.497 61.65h-9.832v3.195h9.831V61.65Zm-11.43 1.598V93h3.195V63.248h-3.195Zm1.598 28.155H67.967v3.194h20.698v-3.194ZM69.565 93V2.449H66.37V93h3.195ZM67.967 4.046h36.221V.851h-36.22v3.195Zm36.221 0c8.205 0 15.128 2.854 20.861 8.588l2.259-2.26c-6.339-6.34-14.077-9.523-23.12-9.523v3.195Zm20.861 8.588c5.734 5.733 8.588 12.656 8.588 20.861h3.194c0-9.043-3.183-16.78-9.523-23.12l-2.259 2.259Zm8.588 20.861c0 5.2-1.457 10.028-4.397 14.519l2.674 1.75c3.27-4.996 4.917-10.43 4.917-16.269h-3.194Zm-4.4 14.525c-2.866 4.42-6.665 7.854-11.424 10.316l1.468 2.838c5.244-2.713 9.465-6.523 12.637-11.416l-2.681-1.738Zm-12.072 12.536 19.274 33.245 2.764-1.602-19.274-33.245-2.764 1.602Zm20.656 30.847h-22.25v3.194h22.25v-3.194Zm-50.754-69.55v23.284h3.195V21.853h-3.195Zm1.598 24.882h15.523V43.54H88.665v3.195Zm15.523 0c3.33 0 6.172-1.338 8.44-3.903l-2.393-2.117c-1.698 1.92-3.685 2.825-6.047 2.825v3.195Zm8.418-3.877c2.363-2.56 3.528-5.717 3.528-9.363h-3.195c0 2.908-.905 5.271-2.681 7.195l2.348 2.168Zm3.528-9.363c0-3.646-1.165-6.802-3.528-9.362l-2.348 2.166c1.776 1.925 2.681 4.288 2.681 7.196h3.195Zm-3.506-9.337c-2.268-2.565-5.11-3.903-8.44-3.903v3.195c2.362 0 4.349.905 6.047 2.824l2.393-2.116Zm-8.44-3.903H88.665v3.195h15.523v-3.195ZM222.87 81.228l-1.124-1.134 1.124 1.134Zm-66.749 0 1.125-1.134-1.125 1.134Zm14.489-14.1-1.13 1.13.01.01 1.12-1.14Zm37.643 0-1.12-1.139-.01.01 1.13 1.13Zm0-38.807-1.13 1.13.01.009 1.12-1.14Zm-37.643 0-1.12-1.14-.01.01 1.13 1.13Zm51.136 51.773c-8.836 8.752-19.554 13.12-32.25 13.12v3.195c13.52 0 25.052-4.688 34.499-14.046l-2.249-2.27Zm-32.25 13.12c-12.696 0-23.414-4.368-32.25-13.12l-2.249 2.27c9.447 9.357 20.978 14.044 34.499 14.044v-3.194Zm-32.25-13.12c-8.828-8.745-13.239-19.5-13.239-32.37h-3.195c0 13.692 4.73 25.274 14.185 34.64l2.249-2.27Zm-13.239-32.37c0-12.87 4.411-23.624 13.239-32.369l-2.249-2.27c-9.455 9.366-14.185 20.948-14.185 34.64h3.195Zm13.239-32.369c8.836-8.752 19.554-13.12 32.25-13.12V-.96c-13.521 0-25.052 4.688-34.499 14.046l2.249 2.27Zm32.25-13.12c12.696 0 23.414 4.368 32.25 13.12l2.249-2.27C214.548 3.729 203.016-.96 189.496-.96v3.195Zm32.25 13.12c8.828 8.745 13.239 19.5 13.239 32.37h3.195c0-13.692-4.73-25.274-14.185-34.64l-2.249 2.27Zm13.239 32.37c0 12.87-4.411 23.624-13.239 32.369l2.249 2.27c9.455-9.367 14.185-20.948 14.185-34.64h-3.195ZM169.49 68.266c5.403 5.312 12.108 7.962 20.006 7.962v-3.195c-7.108 0-12.994-2.353-17.767-7.045l-2.239 2.278Zm20.006 7.962c7.898 0 14.565-2.65 19.886-7.971l-2.259-2.26c-4.682 4.683-10.519 7.036-17.627 7.036v3.194Zm19.877-7.962c5.429-5.337 8.11-12.233 8.11-20.543h-3.195c0 7.559-2.408 13.599-7.155 18.265l2.24 2.278Zm8.11-20.543c0-8.31-2.681-15.205-8.11-20.542l-2.24 2.278c4.747 4.666 7.155 10.706 7.155 18.264h3.195Zm-8.101-20.533c-5.321-5.321-11.988-7.97-19.886-7.97v3.194c7.108 0 12.945 2.352 17.627 7.035l2.259-2.259Zm-19.886-7.97c-7.898 0-14.603 2.648-20.006 7.96l2.239 2.279c4.773-4.692 10.659-7.045 17.767-7.045V19.22Zm-20.016 7.97c-5.339 5.34-7.971 12.232-7.971 20.533h3.195c0-7.566 2.37-13.61 7.035-18.274l-2.259-2.259Zm-7.971 20.533c0 8.302 2.632 15.195 7.971 20.534l2.259-2.26c-4.665-4.664-7.035-10.707-7.035-18.274h-3.195ZM298.686 2.45V.85h-1.598V2.45h1.598Zm20.697 0h1.598V.85h-1.598V2.45Zm0 90.551v1.597h1.598V93h-1.598Zm-15.523 0-1.302.925.478.672h.824V93Zm-34.927-49.156 1.302-.926-2.899-4.08v5.006h1.597Zm0 49.156v1.597h1.598V93h-1.598Zm-20.697 0h-1.598v1.597h1.598V93Zm0-90.551V.85h-1.598V2.45h1.598Zm15.523 0 1.302-.925-.477-.673h-.825V2.45Zm34.927 49.156-1.302.926 2.899 4.08v-5.006h-1.597Zm0-47.559h20.697V.851h-20.697v3.195Zm19.1-1.597V93h3.195V2.449h-3.195Zm1.597 88.954H303.86v3.194h15.523v-3.194Zm-14.221.672-34.927-49.157-2.604 1.85 34.927 49.157 2.604-1.85Zm-37.826-48.231V93h3.195V43.844h-3.195Zm1.597 47.559h-20.697v3.194h20.697v-3.194ZM249.833 93V2.449h-3.195V93h3.195Zm-1.597-88.954h15.523V.851h-15.523v3.195Zm14.221-.672 34.927 49.157 2.604-1.851-34.927-49.156-2.604 1.85Zm37.826 48.231V2.45h-3.195v49.156h3.195ZM395.695 2.45h1.597V.85h-1.597V2.45Zm0 19.921v1.598h1.597V22.37h-1.597Zm-23.285 0v-1.597h-1.597v1.597h1.597Zm0 70.63v1.597h1.598V93h-1.598Zm-20.697 0h-1.598v1.597h1.598V93Zm0-70.63h1.597v-1.597h-1.597v1.597Zm-23.285 0h-1.597v1.598h1.597V22.37Zm0-19.921V.85h-1.597V2.45h1.597Zm65.669 0V22.37h3.195V2.45h-3.195Zm1.598 18.324H372.41v3.195h23.285v-3.195Zm-24.882 1.597V93h3.195V22.37h-3.195Zm1.597 69.033h-20.697v3.194h20.697v-3.194ZM353.31 93V22.37h-3.195V93h3.195Zm-1.597-72.227h-23.285v3.195h23.285v-3.195Zm-21.687 1.597V2.45h-3.195V22.37h3.195Zm-1.598-18.324h67.267V.851h-67.267v3.195Zm69.884 59.59h-1.597v1.597h1.597v-1.597Zm0-18.628V43.41h-1.597v1.598h1.597Zm49.157 0h1.597V43.41h-1.597v1.598Zm0 18.628v1.597h1.597v-1.597h-1.597Zm-47.559 0V45.008h-3.195v18.628h3.195Zm-1.598-17.03h49.157V43.41h-49.157v3.195Zm47.559-1.598v18.628h3.195V45.008h-3.195Zm1.598 17.03h-49.157v3.195h49.157v-3.195Zm36.22 11.04h-1.597v1.598h1.597V73.08Zm36.22 0h1.598v-1.597h-1.598v1.598Zm0 19.922v1.597h1.598V93h-1.598Zm-56.917 0h-1.598v1.597h1.598V93Zm0-90.551V.85h-1.598V2.45h1.598Zm56.271 0h1.597V.85h-1.597V2.45Zm0 19.921v1.598h1.597V22.37h-1.597Zm-35.574 0v-1.597h-1.597v1.597h1.597Zm0 15.006h-1.597v1.597h1.597v-1.597Zm32.34 0h1.597v-1.598h-1.597v1.598Zm0 19.662v1.598h1.597v-1.598h-1.597Zm-32.34 0v-1.597h-1.597v1.597h1.597Zm0 17.638h36.22v-3.195h-36.22v3.195Zm34.623-1.597V93h3.195V73.079h-3.195Zm1.597 18.324h-56.917v3.194h56.917v-3.194ZM464.589 93V2.449h-3.195V93h3.195Zm-1.597-88.954h56.271V.851h-56.271v3.195Zm54.673-1.597V22.37h3.195V2.45h-3.195Zm1.598 18.324h-35.574v3.195h35.574v-3.195Zm-37.171 1.597v15.006h3.194V22.37h-3.194Zm1.597 16.603h32.34v-3.195h-32.34v3.195Zm30.742-1.597v19.662h3.195V37.376h-3.195Zm1.598 18.065h-32.34v3.195h32.34V55.44Zm-33.937 1.597v16.04h3.194v-16.04h-3.194Zm99.945-54.59V.852h-1.597V2.45h1.597Zm20.697 0h1.598V.852h-1.598V2.45Zm0 90.552v1.597h1.598V93h-1.598Zm-15.523 0-1.302.925.478.672h.824V93Zm-34.927-49.156 1.303-.926-2.9-4.08v5.006h1.597Zm0 49.156v1.597h1.598V93h-1.598Zm-20.697 0h-1.597v1.597h1.597V93Zm0-90.551V.85h-1.597V2.45h1.597Zm15.523 0 1.302-.925-.477-.673h-.825V2.45Zm34.927 49.156-1.302.926 2.899 4.08v-5.006h-1.597Zm0-47.559h20.697V.851h-20.697v3.195Zm19.1-1.597V93h3.195V2.449h-3.195Zm1.597 88.954h-15.523v3.194h15.523v-3.194Zm-14.22.672-34.927-49.157-2.605 1.85 34.927 49.157 2.605-1.85Zm-37.827-48.231V93h3.195V43.844h-3.195Zm1.597 47.559h-20.697v3.194h20.697v-3.194ZM533.185 93V2.449h-3.195V93h3.195Zm-1.598-88.954h15.523V.851h-15.523v3.195Zm14.221-.672 34.927 49.157 2.604-1.851-34.927-49.156-2.604 1.85Zm37.826 48.231V2.45h-3.194v49.156h3.194Zm102.139-36.09-1.153 1.106.006.005.006.006 1.141-1.118Zm0 64.55-1.147-1.113 1.147 1.112ZM618.247 93h-1.597v1.597h1.597V93Zm0-90.551V.85h-1.597V2.45h1.597Zm53.555 63.774-1.151-1.108 1.151 1.108Zm0-36.867-1.161 1.096.01.011.011.011 1.14-1.119Zm-32.857-6.986v-1.597h-1.598v1.597h1.598Zm0 50.709h-1.598v1.597h1.598V73.08Zm15.523-69.033c12.087 0 22.1 4.19 30.152 12.575l2.305-2.213C678.247 5.372 667.39.85 654.468.85v3.195Zm30.164 12.586c8.138 8.305 12.22 18.631 12.22 31.092h3.195c0-13.238-4.369-24.385-13.133-33.328l-2.282 2.236Zm12.22 31.092c0 12.462-4.082 22.834-12.226 31.228l2.293 2.225c8.759-9.028 13.128-20.215 13.128-33.453h-3.195Zm-12.226 31.228c-8.051 8.3-18.066 12.45-30.158 12.45v3.195c12.917 0 23.772-4.473 32.451-13.42l-2.293-2.225Zm-30.158 12.45h-36.221v3.195h36.221v-3.194ZM619.845 93V2.449h-3.195V93h3.195Zm-1.598-88.954h36.221V.851h-36.221v3.195Zm36.221 70.63c7.531 0 13.746-2.42 18.485-7.346l-2.302-2.215c-4.057 4.216-9.398 6.366-16.183 6.366v3.195Zm18.485-7.345c4.823-5.01 7.173-11.6 7.173-19.607h-3.195c0 7.345-2.135 13.086-6.28 17.39l2.302 2.217Zm7.173-19.607c0-8.005-2.35-14.56-7.184-19.487l-2.28 2.237c4.134 4.214 6.269 9.905 6.269 17.25h3.195Zm-7.163-19.465c-4.737-5.016-10.955-7.486-18.495-7.486v3.195c6.775 0 12.113 2.186 16.173 6.484l2.322-2.193Zm-18.495-7.486h-15.523v3.195h15.523v-3.195Zm-17.121 1.597V73.08h3.195V22.37h-3.195Zm1.598 52.306h15.523v-3.195h-15.523v3.195Zm171.007-59.162-1.152 1.107.005.005.006.006 1.141-1.118Zm0 64.55-1.147-1.112 1.147 1.112ZM742.427 93h-1.598v1.597h1.598V93Zm0-90.551V.85h-1.598V2.45h1.598Zm53.554 63.774-1.15-1.108h-.001l1.151 1.108Zm0-36.867-1.161 1.096.01.011.011.011 1.14-1.119Zm-32.857-6.986v-1.597h-1.597v1.597h1.597Zm0 50.709h-1.597v1.597h1.597V73.08Zm15.523-69.033c12.087 0 22.101 4.19 30.153 12.575l2.304-2.213C802.426 5.372 791.569.85 778.647.85v3.195Zm30.164 12.586c8.139 8.305 12.221 18.631 12.221 31.092h3.195c0-13.238-4.37-24.385-13.134-33.328l-2.282 2.236Zm12.221 31.092c0 12.462-4.083 22.834-12.227 31.228l2.293 2.225c8.759-9.028 13.129-20.215 13.129-33.453h-3.195Zm-12.227 31.228c-8.051 8.3-18.066 12.45-30.158 12.45v3.195c12.917 0 23.772-4.473 32.452-13.42l-2.294-2.225Zm-30.158 12.45h-36.22v3.195h36.22v-3.194ZM744.024 93V2.449h-3.195V93h3.195Zm-1.597-88.954h36.22V.851h-36.22v3.195Zm36.22 70.63c7.531 0 13.746-2.42 18.485-7.346l-2.302-2.215c-4.057 4.216-9.398 6.366-16.183 6.366v3.195Zm18.485-7.345c4.824-5.01 7.173-11.6 7.173-19.607h-3.195c0 7.345-2.134 13.086-6.279 17.39l2.301 2.217Zm7.173-19.607c0-8.005-2.349-14.56-7.184-19.487l-2.28 2.237c4.135 4.214 6.269 9.905 6.269 17.25h3.195Zm-7.162-19.465c-4.737-5.016-10.955-7.486-18.496-7.486v3.195c6.775 0 12.113 2.186 16.173 6.484l2.323-2.193Zm-18.496-7.486h-15.523v3.195h15.523v-3.195Zm-17.12 1.597V73.08h3.195V22.37h-3.195Zm1.597 52.306h15.523v-3.195h-15.523v3.195Zm91.84-1.597h-1.598v1.597h1.598V73.08Zm36.22 0h1.598V71.48h-1.598v1.598Zm0 19.921v1.597h1.598V93h-1.598Zm-56.918 0h-1.597v1.597h1.597V93Zm0-90.551V.85h-1.597V2.45h1.597Zm56.271 0h1.598V.85h-1.598V2.45Zm0 19.921v1.598h1.598V22.37h-1.598Zm-35.573 0v-1.597h-1.598v1.597h1.598Zm0 15.006h-1.598v1.597h1.598v-1.597Zm32.339 0h1.598v-1.598h-1.598v1.598Zm0 19.662v1.598h1.598v-1.598h-1.598Zm-32.339 0v-1.597h-1.598v1.597h1.598Zm0 17.638h36.22v-3.195h-36.22v3.195Zm34.623-1.597V93h3.195V73.079h-3.195Zm1.597 18.324h-56.918v3.194h56.918v-3.194ZM835.864 93V2.449h-3.195V93h3.195Zm-1.598-88.954h56.271V.851h-56.271v3.195ZM888.94 2.45V22.37h3.195V2.45h-3.195Zm1.597 18.324h-35.573v3.195h35.573v-3.195Zm-37.171 1.597v15.006h3.195V22.37h-3.195Zm1.598 16.603h32.339v-3.195h-32.339v3.195Zm30.742-1.597v19.662h3.195V37.376h-3.195Zm1.597 18.065h-32.339v3.195h32.339V55.44Zm-33.937 1.597v16.04h3.195v-16.04h-3.195ZM924.594 93l-1.519.495.359 1.102h1.16V93ZM895.1 2.449V.85h-2.2l.681 2.093 1.519-.495Zm22.638 0 1.53-.46-.342-1.138h-1.188V2.45Zm20.051 66.62-1.53.46 1.53 5.082 1.529-5.082-1.529-.46Zm20.05-66.62V.85h-1.187l-.342 1.137 1.529.46Zm22.638 0 1.519.495.681-2.093h-2.2V2.45ZM950.983 93v1.597h1.16l.359-1.102-1.519-.495Zm-24.87-.495-29.494-90.55-3.038.989 29.494 90.55 3.038-.989ZM895.1 4.046h22.638V.851H895.1v3.195Zm21.108-1.137 20.051 66.62 3.059-.92-20.05-66.62-3.06.92Zm23.11 66.62 20.051-66.62-3.059-.92-20.051 66.62 3.059.92Zm18.521-65.483h22.638V.851h-22.638v3.195Zm21.119-2.092-29.494 90.551 3.038.99 29.494-90.551-3.038-.99Zm-27.975 89.449h-26.389v3.194h26.389v-3.194Zm57.977-18.324h-1.6v1.597h1.6V73.08Zm36.22 0h1.59V71.48h-1.59v1.598Zm0 19.921v1.597h1.59V93h-1.59Zm-56.921 0h-1.598v1.597h1.598V93Zm0-90.551V.85h-1.598V2.45h1.598Zm56.271 0h1.6V.85h-1.6V2.45Zm0 19.921v1.598h1.6V22.37h-1.6Zm-35.57 0v-1.597h-1.6v1.597h1.6Zm0 15.006h-1.6v1.597h1.6v-1.597Zm32.34 0h1.59v-1.598h-1.59v1.598Zm0 19.662v1.598h1.59v-1.598h-1.59Zm-32.34 0v-1.597h-1.6v1.597h1.6Zm0 17.638h36.22v-3.195h-36.22v3.195Zm34.62-1.597V93h3.19V73.079h-3.19Zm1.6 18.324h-56.921v3.194h56.921v-3.194ZM989.856 93V2.449h-3.195V93h3.195Zm-1.597-88.954h56.271V.851h-56.271v3.195Zm54.671-1.597V22.37h3.2V2.45h-3.2Zm1.6 18.324h-35.57v3.195h35.57v-3.195Zm-37.17 1.597v15.006h3.19V22.37h-3.19Zm1.6 16.603h32.34v-3.195h-32.34v3.195Zm30.74-1.597v19.662h3.19V37.376h-3.19Zm1.6 18.065h-32.34v3.195h32.34V55.44Zm-33.94 1.597v16.04h3.19v-16.04h-3.19Zm70.19 16.04h-1.6v1.598h1.6V73.08Zm32.34 0h1.6v-1.597h-1.6v1.598Zm0 19.922v1.597h1.6V93h-1.6Zm-53.04 0h-1.59v1.597h1.59V93Zm0-90.551V.85h-1.59V2.45h1.59Zm20.7 0h1.6V.85h-1.6V2.45Zm0 72.227h32.34v-3.195h-32.34v3.195Zm30.74-1.597V93h3.2V73.079h-3.2Zm1.6 18.324h-53.04v3.194h53.04v-3.194ZM1058.45 93V2.449h-3.19V93h3.19Zm-1.6-88.954h20.7V.851h-20.7v3.195Zm19.1-1.597v70.63h3.2V2.449h-3.2Zm114.46 78.78-1.13-1.135 1.13 1.134Zm-66.75 0 1.12-1.135-1.12 1.134Zm14.49-14.1-1.13 1.129.01.01 1.12-1.14Zm37.64 0-1.12-1.14-.01.01 1.13 1.13Zm0-38.808-1.13 1.13.01.009 1.12-1.14Zm-37.64 0-1.12-1.14-.01.01 1.13 1.13Zm51.13 51.773c-8.83 8.752-19.55 13.12-32.25 13.12v3.195c13.52 0 25.06-4.688 34.5-14.046l-2.25-2.27Zm-32.25 13.12c-12.69 0-23.41-4.368-32.25-13.12l-2.25 2.27c9.45 9.357 20.98 14.044 34.5 14.044v-3.194Zm-32.25-13.12c-8.82-8.745-13.24-19.5-13.24-32.37h-3.19c0 13.692 4.73 25.274 14.18 34.64l2.25-2.27Zm-13.24-32.37c0-12.87 4.42-23.624 13.24-32.369l-2.25-2.27c-9.45 9.366-14.18 20.948-14.18 34.64h3.19Zm13.24-32.369c8.84-8.752 19.56-13.12 32.25-13.12V-.96c-13.52 0-25.05 4.688-34.5 14.046l2.25 2.27Zm32.25-13.12c12.7 0 23.42 4.368 32.25 13.12l2.25-2.27c-9.44-9.357-20.98-14.045-34.5-14.045v3.195Zm32.25 13.12c8.83 8.745 13.24 19.5 13.24 32.37h3.2c0-13.692-4.73-25.274-14.19-34.64l-2.25 2.27Zm13.24 32.37c0 12.87-4.41 23.624-13.24 32.369l2.25 2.27c9.46-9.367 14.19-20.948 14.19-34.64h-3.2Zm-65.49 20.542c5.4 5.312 12.11 7.962 20 7.962v-3.195c-7.1 0-12.99-2.353-17.76-7.045l-2.24 2.278Zm20 7.962c7.9 0 14.57-2.65 19.89-7.971l-2.26-2.26c-4.68 4.683-10.52 7.036-17.63 7.036v3.194Zm19.88-7.962c5.43-5.337 8.11-12.233 8.11-20.543h-3.19c0 7.559-2.41 13.599-7.16 18.265l2.24 2.278Zm8.11-20.543c0-8.31-2.68-15.205-8.11-20.542l-2.24 2.278c4.75 4.666 7.16 10.706 7.16 18.264h3.19Zm-8.1-20.533c-5.32-5.321-11.99-7.97-19.89-7.97v3.194c7.11 0 12.95 2.352 17.63 7.035l2.26-2.259Zm-19.89-7.97c-7.89 0-14.6 2.648-20 7.96l2.24 2.279c4.77-4.692 10.66-7.045 17.76-7.045V19.22Zm-20.01 7.97c-5.34 5.34-7.97 12.232-7.97 20.533h3.19c0-7.566 2.37-13.61 7.04-18.274l-2.26-2.259Zm-7.97 20.533c0 8.302 2.63 15.195 7.97 20.534l2.26-2.26c-4.67-4.664-7.04-10.707-7.04-18.274h-3.19Zm143.51-36.22 1.12-1.138-1.12 1.138Zm0 43.982-1.12-1.138 1.12 1.138Zm-36.09 9.055v-1.597h-1.6v1.597h1.6Zm0 28.459v1.597h1.6V93h-1.6Zm-20.7 0h-1.59v1.597h1.59V93Zm0-90.551V.85h-1.59V2.45h1.59Zm42.17 39.325-1.17-1.084 1.17 1.084Zm0-16.558 1.18-1.084-1.18 1.084Zm-21.47-3.363v-1.598h-1.6v1.598h1.6Zm0 23.284h-1.6v1.598h1.6v-1.598Zm13.58-41.09c8.48 0 15.58 2.863 21.39 8.595l2.24-2.276c-6.43-6.342-14.34-9.515-23.63-9.515v3.195Zm21.39 8.595c5.82 5.735 8.71 12.655 8.71 20.853h3.19c0-9.05-3.23-16.79-9.66-23.129l-2.24 2.276Zm8.71 20.853c0 8.198-2.89 15.118-8.71 20.853l2.24 2.276c6.43-6.338 9.66-14.079 9.66-23.129h-3.19Zm-8.71 20.853c-5.81 5.732-12.91 8.596-21.39 8.596v3.194c9.29 0 17.2-3.172 23.63-9.515l-2.24-2.275Zm-21.39 8.596h-13.58v3.194h13.58v-3.194Zm-15.18 1.597V93h3.2V64.541h-3.2Zm1.6 26.862h-20.7v3.194h20.7v-3.194ZM1217.37 93V2.449h-3.19V93h3.19Zm-1.6-88.954h34.28V.851h-34.28v3.195Zm34.28 42.689c3.62 0 6.68-1.291 9.07-3.877l-2.35-2.168c-1.75 1.899-3.95 2.85-6.72 2.85v3.195Zm9.07-3.877c2.36-2.56 3.53-5.717 3.53-9.363h-3.2c0 2.908-.9 5.271-2.68 7.195l2.35 2.168Zm3.53-9.363c0-3.646-1.17-6.802-3.53-9.362l-2.35 2.166c1.78 1.925 2.68 4.288 2.68 7.196h3.2Zm-3.53-9.362c-2.39-2.587-5.45-3.878-9.07-3.878v3.195c2.77 0 4.97.951 6.72 2.85l2.35-2.168Zm-9.07-3.878h-13.58v3.195h13.58v-3.195Zm-15.18 1.598v23.284h3.2V21.853h-3.2Zm1.6 24.882h13.58V43.54h-13.58v3.195Zm76.3 26.344h-1.6v1.597h1.6V73.08Zm36.22 0h1.6V71.48h-1.6v1.598Zm0 19.921v1.597h1.6V93h-1.6Zm-56.91 0h-1.6v1.597h1.6V93Zm0-90.551V.85h-1.6V2.45h1.6Zm56.27 0h1.59V.85h-1.59V2.45Zm0 19.921v1.598h1.59V22.37h-1.59Zm-35.58 0v-1.597h-1.6v1.597h1.6Zm0 15.006h-1.6v1.597h1.6v-1.597Zm32.34 0h1.6v-1.598h-1.6v1.598Zm0 19.662v1.598h1.6v-1.598h-1.6Zm-32.34 0v-1.597h-1.6v1.597h1.6Zm0 17.638h36.22v-3.195h-36.22v3.195Zm34.63-1.597V93h3.19V73.079h-3.19Zm1.59 18.324h-56.91v3.194h56.91v-3.194ZM1293.67 93V2.449h-3.19V93h3.19Zm-1.59-88.954h56.27V.851h-56.27v3.195Zm54.67-1.597V22.37h3.19V2.45h-3.19Zm1.6 18.324h-35.58v3.195h35.58v-3.195Zm-37.18 1.597v15.006h3.2V22.37h-3.2Zm1.6 16.603h32.34v-3.195h-32.34v3.195Zm30.74-1.597v19.662h3.2V37.376h-3.2Zm1.6 18.065h-32.34v3.195h32.34V55.44Zm-33.94 1.597v16.04h3.2v-16.04h-3.2ZM1408.27 93l-1.38.795.46.802h.92V93Zm-17.07-29.752 1.38-.796-.46-.802h-.92v1.598Zm-9.83 0V61.65h-1.6v1.598h1.6Zm0 29.752v1.597h1.6V93h-1.6Zm-20.7 0h-1.6v1.597h1.6V93Zm0-90.551V.85h-1.6V2.45h1.6Zm58.21 9.055 1.13-1.13-1.13 1.13Zm4.4 37.385-1.34-.875v.006l1.34.869Zm-12.03 10.866-.73-1.42-1.49.771.84 1.45 1.38-.801ZM1430.52 93v1.597h2.78l-1.39-2.398-1.39.801Zm-49.15-71.147v-1.598h-1.6v1.598h1.6Zm0 23.284h-1.6v1.598h1.6v-1.598Zm22.76-3.363-1.17-1.084-.01.013-.01.012 1.19 1.059Zm0-16.558-1.19 1.058.01.013.01.012 1.17-1.083Zm5.53 66.989-17.08-29.753-2.77 1.59 17.08 29.753 2.77-1.59ZM1391.2 61.65h-9.83v3.195h9.83V61.65Zm-11.43 1.598V93h3.2V63.248h-3.2Zm1.6 28.155h-20.7v3.194h20.7v-3.194ZM1362.27 93V2.449h-3.2V93h3.2Zm-1.6-88.954h36.22V.851h-36.22v3.195Zm36.22 0c8.21 0 15.13 2.854 20.86 8.588l2.26-2.26c-6.34-6.34-14.08-9.523-23.12-9.523v3.195Zm20.86 8.588c5.74 5.733 8.59 12.656 8.59 20.861h3.19c0-9.043-3.18-16.78-9.52-23.12l-2.26 2.259Zm8.59 20.861c0 5.2-1.46 10.028-4.4 14.519l2.68 1.75c3.27-4.996 4.91-10.43 4.91-16.269h-3.19Zm-4.4 14.525c-2.87 4.42-6.67 7.854-11.42 10.316l1.46 2.838c5.25-2.713 9.47-6.523 12.64-11.416l-2.68-1.738Zm-12.07 12.536 19.27 33.245 2.77-1.602-19.28-33.245-2.76 1.602Zm20.65 30.847h-22.25v3.194h22.25v-3.194Zm-50.75-69.55v23.284h3.2V21.853h-3.2Zm1.6 24.882h15.52V43.54h-15.52v3.195Zm15.52 0c3.33 0 6.17-1.338 8.44-3.903l-2.39-2.117c-1.7 1.92-3.69 2.825-6.05 2.825v3.195Zm8.42-3.877c2.36-2.56 3.53-5.717 3.53-9.363h-3.2c0 2.908-.9 5.271-2.68 7.195l2.35 2.168Zm3.53-9.363c0-3.646-1.17-6.802-3.53-9.362l-2.35 2.166c1.78 1.925 2.68 4.288 2.68 7.196h3.2Zm-3.51-9.337c-2.27-2.565-5.11-3.903-8.44-3.903v3.195c2.36 0 4.35.905 6.05 2.824l2.39-2.116Zm-8.44-3.903h-15.52v3.195h15.52v-3.195Z"/></svg>