<svg xmlns="http://www.w3.org/2000/svg" width="182" height="56" fill="none"><g fill-rule="evenodd" clip-path="url(#a)" clip-rule="evenodd"><path fill="url(#b)" d="M38.742 26.9c-.182-.14-.374-.281-.567-.421-.192-.14-.384-.28-.566-.42a12.969 12.969 0 0 0-2.227-5.444c0 .72-.081 2.001-.283 3.682a85.68 85.68 0 0 0-.054.376c-.065.463-.135.964-.23 1.466a46.103 46.103 0 0 1-1.012 4.323c-.122.44-.243.88-.405 1.32v-1.08c.04-.92.04-1.841.04-2.762 0-.92 0-1.841-.04-2.722 0-.68-.04-1.401-.08-2.081-.082-1.762-.244-3.443-.405-5.084 0 0-.041-.36-.081-.52l-.122-.841 2.631-.88c.81 1.44 2.308 2.481 4.049 2.641.08 0 .172.01.263.02.09.01.182.02.263.02 2.51 0 4.615-1.721 5.141-4.043.081-.36.122-.76.122-1.16 0-.36-.04-.721-.122-1.041-.364-1.802-1.7-3.283-3.481-3.883-.527-.16-1.093-.28-1.7-.28-2.915 0-5.263 2.321-5.263 5.204 0 .32.04.64.08.96-.53.175-1.06.371-1.606.573-.204.075-.41.152-.62.228C31.05 6.124 28.177 0 24.897 0c-3.279 0-6.153 6.084-7.57 15.01C8.826 11.769 2.065 11.169.405 13.97c-1.66 2.802 2.227 8.286 9.352 14.01C2.632 33.664-1.255 39.108.365 41.95c1.66 2.842 8.42 2.242 16.962-1C18.744 49.875 21.618 56 24.897 56c3.28 0 6.153-6.084 7.57-15.01 8.502 3.242 15.262 3.842 16.922 1.04 1.74-2.882-2.186-8.366-9.27-14.05 7.124-5.684 11.01-11.128 9.391-13.97-.566-.96-1.7-1.521-3.279-1.721.081.4.162.8.162 1.24 0 .481-.08.961-.202 1.402.283.16.485.36.607.64 1.255 2.202-2.065 6.605-8.056 11.328ZM9.959 28.14c-.04-.04-.121-.12-.202-.16.04.04.121.12.202.16Zm14.898-.88h.607c.445 0 .769-.08.93-.28.163-.2.284-.521.325-1.041 0-.106.011-.2.022-.29.01-.08.018-.155.018-.23v-.241c0-.2-.121-.36-.243-.44-.162-.12-.404-.16-.728-.16h-.648l-.284 2.681Zm13.318-15.251-.243 2.281c0 .2 0 .36.162.48v.2c0 .24.04.441.122.601.04.16.162.32.283.44.162.12.324.2.526.28.203.08.446.12.729.12.324 0 .648-.08.89-.16.244-.08.446-.2.608-.4.162-.16.283-.36.364-.6.081-.24.122-.52.162-.8l.04-.521h-1.254l-.081.6c-.04.08-.04.2-.04.24 0 .017-.008.04-.016.068-.011.039-.025.086-.025.133a.556.556 0 0 0-.037.102c-.012.04-.022.075-.044.098-.04.08-.081.12-.122.16-.031.063-.063.076-.114.098a.518.518 0 0 1-.29.062c-.243 0-.365-.08-.446-.24a.995.995 0 0 1-.08-.4v-.32l.283-2.843c0-.04.01-.08.02-.12.01-.04.02-.08.02-.12 0-.08 0-.16.04-.24a.556.556 0 0 0 .037-.102c.012-.04.022-.076.045-.098.04-.08.08-.12.121-.16.032-.063.063-.077.114-.099l.048-.021c.08-.04.162-.04.243-.04h.162c.02 0 .04.01.06.02.02.01.04.02.061.02l.081.08c0 .02.01.03.02.04.01.01.02.02.02.04.041.04.041.08.041.12V11.608l-.08.6H41.9l.08-.56v-.36c0-.16 0-.28-.04-.4-.04-.2-.121-.4-.243-.56a.893.893 0 0 0-.526-.4 2.72 2.72 0 0 0-.85-.121c-.365 0-.688.08-.931.16-.284.12-.486.24-.648.44-.162.2-.283.44-.364.68-.122.281-.162.561-.203.922ZM3.2 15.45c1.295-2.162 6.8-1.561 13.966 1.2-.081.481-.121.922-.162 1.402a13.11 13.11 0 0 0-3.643 4.603c.647-.36 1.78-.92 3.36-1.56.335-.154.702-.29 1.082-.432.217-.08.438-.162.658-.25 1.255-.44 2.713-.92 4.291-1.32.223-.06.446-.11.668-.16.223-.05.446-.1.668-.16 0 0 .284-.16.891-.44-.607.32-1.215.64-1.862.96-.127.063-.254.131-.384.202-.2.109-.407.22-.628.318-.081.04-.162.08-.284.16-.202.1-.394.21-.587.32-.192.11-.384.22-.587.32-.313.187-.627.367-.939.546-.492.282-.978.561-1.45.856a2.73 2.73 0 0 0-.444.28l-.365.24-.971.6a72.62 72.62 0 0 0-4.21 2.883c-.284.2-.567.4-.81.6-.02 0-.03.01-.04.02-.01.01-.02.02-.041.02-.04.04-.081.07-.121.1-.041.03-.082.06-.122.1-5.91-4.763-9.23-9.206-7.934-11.408Zm25.382 9.967c0 .16 0 .36-.04.56-.041.48-.163.921-.324 1.241-.162.36-.365.6-.648.801-.284.2-.567.36-.89.44-.325.08-.689.12-1.094.12h-.89l-.446 4.163h-1.943l1.012-9.526h2.955c1.58 0 2.308.72 2.308 2.201Zm-12.064-.26c.01-.01.02-.02.04-.02-.04 0-.08.04-.08.04a.556.556 0 0 0-.162.12c.08-.04.121-.08.162-.12.02 0 .03-.01.04-.02Zm8.461 27.68c-2.55 0-4.777-5.084-5.95-12.57.202-.08.414-.17.627-.26.212-.09.425-.18.627-.26 1.457.56 3.036.881 4.696.881.405 0 .81 0 1.214-.04-.647-.4-1.74-1.08-3.076-2.081-.192-.156-.399-.31-.614-.473H22.5a20.786 20.786 0 0 1-.883-.688 42.626 42.626 0 0 1-3.28-3.003c-.323-.32-.647-.64-.93-1a66.683 66.683 0 0 0 1.032.62c.03.02.06.04.101.06.423.27.86.526 1.304.784.28.163.56.327.842.497.81.48 1.62.92 2.429 1.321.303.16.617.32.931.48.314.16.627.32.931.48.931.481 1.862.921 2.793 1.362.304.14.617.28.931.42.314.14.628.28.931.42l.35.136c.305.117.625.24.946.385-1.174 7.485-3.4 12.529-5.951 12.529Zm-4.696-13.09c-.153-.063-.305-.125-.458-.19.148.066.3.13.458.19Zm-.458-.19a9.283 9.283 0 0 1-1-.49l.29.145c.236.118.467.235.71.344Zm-1.91-.671h-.001c-.273.11-.53.216-.789.301C9.96 41.91 4.413 42.55 3.118 40.348c-1.255-2.2 2.064-6.604 8.056-11.327.182.14.374.28.566.42.193.14.385.28.567.42a12.47 12.47 0 0 0 4.655 7.966c.405.32.85.64 1.296.92l-.344.14ZM31.01 16.252c.03.2.06.4.08.6 0 .036.009.072.018.112.011.048.023.102.023.168 0-.12 0-.2-.04-.28-.04-.44-.081-.84-.122-1.24-1.174-7.486-3.4-12.57-5.95-12.57-2.55 0-4.777 5.044-5.951 12.53-.081.4-.162.8-.203 1.24.486-.24.972-.48 1.498-.68a13.48 13.48 0 0 1 4.615-.841c1.66 0 3.239.32 4.696.88.202-.08.415-.17.627-.26.213-.09.426-.18.628-.26.02.2.05.4.08.6Zm15.747 24.177c-1.295 2.161-6.8 1.561-13.966-1.201.081-.48.122-.92.162-1.401a12.73 12.73 0 0 0 4.655-7.926c.081-.52.122-1.08.162-1.64.228.197.477.374.717.546.1.072.2.143.295.214 5.951 4.803 9.27 9.206 7.975 11.408Z"/><path fill="#fff" d="M75.656 42.53h-5.667l-1.001 2.626h-5.113l6.519-15.062h4.942l6.519 15.062h-5.198l-1.001-2.625Zm-1.385-3.657-1.449-3.787-1.448 3.787h2.897ZM85.902 44.5a7.436 7.436 0 0 1-2.972-2.798c-.717-1.197-1.075-2.556-1.075-4.077 0-1.52.358-2.88 1.075-4.077a7.436 7.436 0 0 1 2.972-2.798c1.264-.666 2.684-1 4.26-1 1.45 0 2.742.258 3.878.775a7.208 7.208 0 0 1 2.812 2.237l-3.174 2.862c-.923-1.176-2.01-1.764-3.26-1.764-1.05 0-1.896.34-2.535 1.022-.639.681-.958 1.596-.958 2.743 0 1.148.32 2.062.959 2.743.638.682 1.484 1.022 2.534 1.022 1.25 0 2.337-.588 3.26-1.764l3.174 2.862a7.208 7.208 0 0 1-2.812 2.237c-1.136.517-2.428.775-3.877.775-1.577 0-2.997-.334-4.26-1Zm22.347-1.97h-5.666l-1.002 2.626h-5.112l6.518-15.062h4.943l6.518 15.062h-5.198l-1.001-2.625Zm-1.385-3.657-1.448-3.787-1.449 3.787h2.897Zm8.394-8.779h7.349c1.662 0 3.128.305 4.399.915 1.271.61 2.258 1.48 2.961 2.614.703 1.133 1.055 2.467 1.055 4.002 0 1.535-.352 2.869-1.055 4.002-.703 1.133-1.69 2.005-2.961 2.614-1.271.61-2.737.915-4.399.915h-7.349V30.094Zm7.136 11.103c1.08 0 1.942-.312 2.589-.936.646-.624.969-1.503.969-2.636 0-1.133-.323-2.012-.969-2.636-.647-.624-1.509-.936-2.589-.936h-2.109v7.144h2.109Zm22.858.129v3.83h-12.398V30.094h12.121v3.83h-7.179v1.764h6.306v3.658h-6.306v1.98h7.456Zm15.253 3.83-.042-6.864-3.238 5.508h-2.216l-3.238-5.271v6.627h-4.58V30.094h4.133l4.857 8.026 4.729-8.026h4.133l.042 15.062h-4.58Zm15.871-5.465v5.465h-5.027v-5.53l-5.624-9.532h5.304l3.046 5.207 3.068-5.207H182l-5.624 9.597ZM71.97 11.704c.868.734 1.303 1.744 1.303 3.028 0 1.285-.435 2.292-1.303 3.02-.87.728-2.07 1.093-3.602 1.093h-3.224v3.802h-1.269V10.603h4.493c1.532 0 2.733.367 3.602 1.101Zm-.91 5.24c.63-.523.944-1.26.944-2.212 0-.974-.315-1.723-.943-2.245-.63-.522-1.538-.783-2.727-.783h-3.19v6.022h3.19c1.189 0 2.098-.26 2.727-.783Zm7.143 5.006a5.833 5.833 0 0 1-2.263-2.194c-.543-.929-.815-1.973-.815-3.131 0-1.159.272-2.202.815-3.131a5.833 5.833 0 0 1 2.263-2.194c.966-.533 2.044-.8 3.233-.8s2.26.264 3.215.791a5.848 5.848 0 0 1 2.256 2.194c.548.935.823 1.982.823 3.14 0 1.159-.275 2.205-.823 3.14a5.848 5.848 0 0 1-2.255 2.194c-.955.527-2.027.791-3.216.791-1.19 0-2.267-.267-3.233-.8Zm5.805-.98a4.663 4.663 0 0 0 1.801-1.79c.434-.763.652-1.614.652-2.555 0-.94-.218-1.792-.652-2.555a4.663 4.663 0 0 0-1.8-1.79c-.767-.43-1.624-.644-2.573-.644-.949 0-1.81.215-2.581.645a4.706 4.706 0 0 0-1.818 1.789c-.44.763-.66 1.614-.66 2.555 0 .94.22 1.792.66 2.555a4.706 4.706 0 0 0 1.818 1.79c.772.43 1.632.645 2.581.645.949 0 1.806-.216 2.572-.646Zm22.689-10.367-4.047 12.044h-1.338l-3.516-10.272-3.532 10.272h-1.32l-4.048-12.044h1.303l3.465 10.358 3.584-10.358h1.183l3.533 10.41 3.515-10.41h1.218Zm10.804 10.943v1.1h-8.489V10.604h8.232v1.101h-6.963v4.284h6.208v1.084h-6.208v4.474h7.22Zm11.182 1.1-2.744-3.87a8.68 8.68 0 0 1-.961.051h-3.224v3.82h-1.269V10.603h4.493c1.532 0 2.733.367 3.602 1.101.869.734 1.303 1.744 1.303 3.028 0 .941-.237 1.735-.712 2.383-.474.648-1.152 1.116-2.032 1.403l2.933 4.129h-1.389Zm-1.012-5.694c.629-.528.943-1.268.943-2.22 0-.974-.314-1.723-.943-2.245s-1.538-.783-2.727-.783h-3.19v6.04h3.19c1.189 0 2.098-.264 2.727-.792Zm7.211 5.007a5.791 5.791 0 0 1-2.247-2.194c-.543-.935-.814-1.982-.814-3.14 0-1.159.271-2.205.814-3.14a5.775 5.775 0 0 1 2.256-2.194c.96-.527 2.035-.791 3.224-.791.891 0 1.715.15 2.469.447a5.117 5.117 0 0 1 1.921 1.308l-.806.809c-.938-.953-2.121-1.428-3.55-1.428-.949 0-1.812.218-2.59.653a4.77 4.77 0 0 0-1.826 1.79c-.44.757-.66 1.605-.66 2.546 0 .94.22 1.79.66 2.546a4.77 4.77 0 0 0 1.826 1.79c.778.436 1.641.654 2.59.654 1.441 0 2.624-.482 3.55-1.446l.806.809a5.193 5.193 0 0 1-1.929 1.316 6.62 6.62 0 0 1-2.478.456c-1.189 0-2.261-.264-3.216-.791Zm12.09-.009a5.832 5.832 0 0 1-2.263-2.194c-.543-.929-.815-1.973-.815-3.131 0-1.159.272-2.202.815-3.131a5.832 5.832 0 0 1 2.263-2.194c.966-.533 2.044-.8 3.233-.8s2.261.264 3.216.791a5.853 5.853 0 0 1 2.255 2.194c.548.935.823 1.982.823 3.14 0 1.159-.275 2.205-.823 3.14a5.853 5.853 0 0 1-2.255 2.194c-.955.527-2.027.791-3.216.791s-2.267-.267-3.233-.8Zm5.805-.98a4.66 4.66 0 0 0 1.801-1.79c.435-.763.652-1.614.652-2.555 0-.94-.217-1.792-.652-2.555a4.66 4.66 0 0 0-1.801-1.79c-.766-.43-1.623-.644-2.572-.644-.949 0-1.809.215-2.581.645a4.704 4.704 0 0 0-1.818 1.789c-.44.763-.66 1.614-.66 2.555 0 .94.22 1.792.66 2.555a4.704 4.704 0 0 0 1.818 1.79c.772.43 1.632.645 2.581.645.949 0 1.806-.216 2.572-.646Zm6.569-10.367h4.887c1.269 0 2.39.255 3.362.766a5.576 5.576 0 0 1 2.263 2.133c.538.912.806 1.953.806 3.123 0 1.17-.268 2.21-.806 3.123a5.576 5.576 0 0 1-2.263 2.133c-.972.51-2.093.766-3.362.766h-4.887V10.603Zm4.819 10.943c1.051 0 1.972-.21 2.761-.628a4.556 4.556 0 0 0 1.835-1.738c.434-.74.651-1.591.651-2.555 0-.963-.217-1.815-.651-2.555a4.556 4.556 0 0 0-1.835-1.738c-.789-.418-1.71-.628-2.761-.628h-3.55v9.842h3.55Zm17.835 0v1.1h-8.489V10.604h8.232v1.101h-6.963v4.284h6.208v1.084h-6.208v4.474H182Z"/></g><defs><linearGradient id="b" x1="49.893" x2=".056" y1="-.036" y2="-.036" gradientUnits="userSpaceOnUse"><stop stop-color="#4252D1"/><stop offset="1" stop-color="#609BDB"/></linearGradient><clipPath id="a"><path fill="#fff" d="M0 0h182v56H0z"/></clipPath></defs></svg>