<svg xmlns="http://www.w3.org/2000/svg" width="19" height="19" fill="none"><g clip-path="url(#a)"><g clip-path="url(#b)"><path fill="#fff" d="M15.576 3.423a8.589 8.589 0 0 0-12.152 0 8.589 8.589 0 0 0 0 12.153 8.589 8.589 0 0 0 12.152 0 8.589 8.589 0 0 0 0-12.153Zm-.359 10.928a8.614 8.614 0 0 0-1.283-.95 13.9 13.9 0 0 0 .518-3.354h2.527a7.43 7.43 0 0 1-1.762 4.304ZM2.022 10.047h2.526c.042 1.182.22 2.32.519 3.353a8.614 8.614 0 0 0-1.284.95 7.43 7.43 0 0 1-1.761-4.303Zm1.76-5.399c.402.36.832.677 1.285.95-.3 1.034-.477 2.172-.519 3.354H2.022a7.43 7.43 0 0 1 1.76-4.304Zm5.17 1.064A7.44 7.44 0 0 1 6.4 5.065c.464-1.196 1.32-2.63 2.553-2.985v3.632Zm0 1.097v2.143H5.645c.038-1 .18-1.96.415-2.84a8.536 8.536 0 0 0 2.894.697Zm0 3.238v2.143c-1.01.063-1.986.3-2.893.696a12.903 12.903 0 0 1-.415-2.839h3.309Zm0 3.24v3.632c-1.232-.355-2.088-1.79-2.552-2.985a7.44 7.44 0 0 1 2.553-.647Zm1.096 0a7.44 7.44 0 0 1 2.552.647c-.464 1.196-1.32 2.63-2.552 2.985v-3.632Zm0-1.097v-2.143h3.308a12.9 12.9 0 0 1-.415 2.84 8.536 8.536 0 0 0-2.893-.697Zm0-3.238V6.809a8.535 8.535 0 0 0 2.893-.696 12.9 12.9 0 0 1 .415 2.839h-3.308Zm0-3.24V2.08c1.232.356 2.088 1.79 2.552 2.985a7.44 7.44 0 0 1-2.552.647Zm2.46-3.085c.7.307 1.354.723 1.94 1.24-.278.246-.573.469-.88.668a8.243 8.243 0 0 0-1.06-1.908ZM5.433 4.535a7.53 7.53 0 0 1-.881-.668 7.465 7.465 0 0 1 1.94-1.24 8.247 8.247 0 0 0-1.06 1.908Zm0 9.929a8.245 8.245 0 0 0 1.06 1.908 7.462 7.462 0 0 1-1.941-1.24 7.53 7.53 0 0 1 .88-.668Zm8.135 0c.307.2.602.422.88.668a7.467 7.467 0 0 1-1.94 1.24 8.245 8.245 0 0 0 1.06-1.908Zm.884-5.512a13.898 13.898 0 0 0-.518-3.353 8.614 8.614 0 0 0 1.283-.95 7.43 7.43 0 0 1 1.761 4.303h-2.526Z"/></g></g><defs><clipPath id="a"><path fill="#fff" d="M0 0h19v19H0z"/></clipPath><clipPath id="b"><path fill="#fff" d="M.905.905h17.19v17.19H.906z"/></clipPath></defs></svg>