<svg xmlns="http://www.w3.org/2000/svg" width="109" height="46" fill="none"><rect width="106.721" height="38.694" y="6.915" fill="#FF3459" rx="5" transform="rotate(-3.506 0 6.915)"/><path fill="#fff" d="M22.718 31.847c-2.474 0-4.531-.82-6.17-2.459-1.623-1.654-2.435-3.703-2.435-6.146 0-2.442.812-4.483 2.435-6.122 1.639-1.655 3.696-2.482 6.17-2.482 1.481 0 2.852.346 4.113 1.04 1.26.677 2.254 1.607 2.979 2.79l-3.263 1.89a3.653 3.653 0 0 0-1.56-1.489c-.677-.362-1.434-.544-2.27-.544-1.465 0-2.639.45-3.521 1.348-.867.898-1.3 2.088-1.3 3.57 0 1.48.433 2.67 1.3 3.569.882.898 2.056 1.347 3.522 1.347.835 0 1.591-.181 2.27-.543.693-.363 1.213-.86 1.56-1.49l3.262 1.891c-.71 1.182-1.695 2.12-2.955 2.813-1.261.678-2.64 1.017-4.137 1.017Zm23.988-16.878h3.782v16.547h-3.782v-6.572h-5.201v6.572h-3.782V14.969h3.782v6.335h5.2v-6.335Zm15.605 0h3.782l-4.775 11.677c-1.402 3.42-3.719 5.043-6.95 4.87V27.97c1.529.142 2.632-.402 3.31-1.631l-5.295-11.37h3.782l3.238 7.233 2.908-7.233Zm2.37 16.547V27.97c.915.142 1.6 0 2.057-.425.457-.426.686-1.293.686-2.6v-9.976h11.44v16.547h-3.781V18.609h-3.877v6.193c0 1.403-.197 2.593-.591 3.57-.378.977-.898 1.694-1.56 2.151a5.812 5.812 0 0 1-2.057.898c-.71.158-1.481.19-2.317.095Zm28.956-16.547v16.547h-3.782v-5.437H88.65l-3.523 5.437h-4.255l3.877-5.91a5.611 5.611 0 0 1-2.458-1.986c-.63-.914-.946-1.906-.946-2.978 0-1.576.552-2.915 1.655-4.019 1.103-1.103 2.442-1.654 4.019-1.654h6.618Zm-6.618 7.8h2.836v-4.255h-2.837c-.52 0-.969.205-1.347.615-.362.41-.544.914-.544 1.513 0 .599.182 1.103.544 1.513.378.41.827.614 1.347.614Z"/></svg>